<svg width="650" height="607" xmlns="http://www.w3.org/2000/svg" xmlns:xlink="http://www.w3.org/1999/xlink">
    <defs>
        <linearGradient x1="0%" y1="50%" x2="100%" y2="50%" id="b">
            <stop stop-color="#E5E9ED" offset="0%"/>
            <stop stop-color="#C2C7CE" offset="100%"/>
        </linearGradient>
        <linearGradient x1="50%" y1="0%" x2="50%" y2="100%" id="f">
            <stop stop-color="#04A8F5" stop-opacity="0" offset="0%"/>
            <stop stop-color="#04A8F5" offset="15.166%"/>
            <stop stop-color="#04A8F5" stop-opacity="0" offset="100%"/>
        </linearGradient>
        <linearGradient x1="50%" y1="0%" x2="50%" y2="100%" id="g">
            <stop stop-color="#04A8F5" stop-opacity="0" offset="0%"/>
            <stop stop-color="#04A8F5" offset="15.166%"/>
            <stop stop-color="#04A8F5" stop-opacity="0" offset="100%"/>
        </linearGradient>
        <filter x="-46.1%" y="-33.8%" width="192.1%" height="194.6%" filterUnits="objectBoundingBox" id="h">
            <feOffset dy="5" in="SourceAlpha" result="shadowOffsetOuter1"/>
            <feGaussianBlur stdDeviation="5" in="shadowOffsetOuter1" result="shadowBlurOuter1"/>
            <feColorMatrix values="0 0 0 0 0 0 0 0 0 0 0 0 0 0 0 0 0 0 0.148574 0" in="shadowBlurOuter1"/>
        </filter>
        <filter x="-69.7%" y="-50%" width="239.5%" height="243.2%" filterUnits="objectBoundingBox" id="j">
            <feOffset dy="8" in="SourceAlpha" result="shadowOffsetOuter1"/>
            <feGaussianBlur stdDeviation="7.5" in="shadowOffsetOuter1" result="shadowBlurOuter1"/>
            <feColorMatrix values="0 0 0 0 0 0 0 0 0 0 0 0 0 0 0 0 0 0 0.148574 0" in="shadowBlurOuter1"/>
        </filter>
        <filter x="-126.2%" y="-92.5%" width="352.4%" height="365%" filterUnits="objectBoundingBox" id="l">
            <feOffset dy="8" in="SourceAlpha" result="shadowOffsetOuter1"/>
            <feGaussianBlur stdDeviation="7.5" in="shadowOffsetOuter1" result="shadowBlurOuter1"/>
            <feColorMatrix values="0 0 0 0 0 0 0 0 0 0 0 0 0 0 0 0 0 0 0.148574 0" in="shadowBlurOuter1"/>
        </filter>
        <path id="a" d="M0 0h40v38H0z"/>
        <path id="d" d="M0 0h40v38H0z"/>
        <path id="i" d="M410 185h38v37h-38z"/>
        <rect id="k" x="188" y="113" width="38" height="37" rx="2"/>
        <rect id="m" x="596" y="294" width="21" height="20" rx="2"/>
    </defs>
    <g fill="none" fill-rule="evenodd" opacity=".7">
        <g transform="translate(530 215.257)">
            <mask id="c" fill="#fff">
                <use xlink:href="#a"/>
            </mask>
            <use fill="#F5F5F5" xlink:href="#a"/>
            <path fill="url(#b)" opacity=".3" mask="url(#c)" d="m-2-2 44 42V-2z"/>
        </g>
        <g transform="translate(380 117.257)">
            <mask id="e" fill="#fff">
                <use xlink:href="#d"/>
            </mask>
            <use fill="#F5F5F5" xlink:href="#d"/>
            <path fill="url(#b)" opacity=".3" mask="url(#e)" d="m-2-2 44 42V-2z"/>
        </g>
        <rect fill="#C2C7CE" opacity=".304" x="482" y="165.257" width="40" height="40" rx="2"/>
        <rect fill="#C2C7CE" opacity=".304" x="532" y="315.257" width="20" height="20" rx="2"/>
        <rect fill="#C2C7CE" opacity=".304" x="431" y="264.257" width="40" height="40" rx="2"/>
        <rect fill="#C2C7CE" opacity=".304" x="481" y="315.257" width="40" height="40" rx="2"/>
        <rect fill="#C2C7CE" opacity=".304" x="582" y="365.257" width="40" height="40" rx="2"/>
        <rect fill="#C2C7CE" opacity=".304" x="431" y="415.257" width="40" height="40" rx="2"/>
        <rect fill="#C2C7CE" opacity=".1" x="380" y="416.257" width="40" height="40" rx="2"/>
        <rect fill="#C2C7CE" opacity=".1" x="482" y="395.257" width="19" height="19" rx="2"/>
        <rect fill="#C2C7CE" opacity=".1" x="431" y="465.257" width="40" height="40" rx="2"/>
        <rect fill="#C2C7CE" opacity=".304" x="383" y="165.257" width="40" height="40" rx="2"/>
        <rect fill="#C2C7CE" opacity=".1" x="431" y="115.257" width="40" height="40" rx="2"/>
        <rect fill="#C2C7CE" opacity=".1" x="80" y="85.257" width="40" height="40" rx="2"/>
        <rect fill="#C2C7CE" opacity=".1" x="80" y="135.257" width="40" height="40" rx="2"/>
        <rect fill="#C2C7CE" opacity=".1" x="31" y="85.257" width="40" height="40" rx="2"/>
        <rect fill="#C2C7CE" opacity=".1" x="332" y="115.257" width="40" height="40" rx="2"/>
        <rect fill="#C2C7CE" opacity=".1" x="332" y="59.257" width="40" height="40" rx="2"/>
        <rect fill="#C2C7CE" opacity=".2" x="581" y="165.257" width="40" height="40" rx="2"/>
        <rect fill="#C2C7CE" opacity=".2" x="482" y="264.257" width="40" height="40" rx="2"/>
        <rect fill="#C2C7CE" opacity=".2" x="383" y="264.257" width="40" height="40" rx="2"/>
        <rect fill="#C2C7CE" opacity=".2" x="281" y="315.257" width="40" height="40" rx="2"/>
        <rect fill="#C2C7CE" opacity=".2" x="283" y="166.257" width="40" height="40" rx="2"/>
        <rect fill="#C2C7CE" opacity=".2" x="131" y="135.257" width="40" height="40" rx="2"/>
        <rect fill="#FF9502" opacity=".2" y="105.257" width="20" height="20" rx="2"/>
        <rect fill="#C2C7CE" opacity=".2" x="481" y="515.257" width="40" height="40" rx="2"/>
        <rect fill="#C2C7CE" opacity=".2" x="528" y="515" width="6" height="6" rx="1"/>
        <rect fill="#C2C7CE" opacity=".2" x="528" y="496" width="6" height="6" rx="1"/>
        <rect fill="#04A8F5" x="528" y="505" width="6" height="6" rx="1"/>
        <rect fill="#04A8F5" opacity=".2" x="331" y="215.257" width="40" height="40" rx="2"/>
        <rect fill="#04A8F5" opacity=".5" x="482" y="86.257" width="20" height="20" rx="2"/>
        <rect fill="#C2C7CE" opacity=".2" x="431" y="213.257" width="40" height="40" rx="2"/>
        <rect fill="#C2C7CE" opacity=".2" x="429" y="166.257" width="40" height="40" rx="2"/>
        <rect fill="#C2C7CE" opacity=".2" x="530" y="264.257" width="40" height="40" rx="2"/>
        <g transform="translate(532.405 338.257)" stroke="url(#f)">
            <path d="M0 4.483v69.39l18.08 18.805h24.683l54.31 54.31v122.018"/>
            <path d="M2.595 2v70.959l16.961 17.236h25.801l54.31 54.31v122.018"/>
            <path d="M5.595 0v72.183l15.21 15.504H48.06l54.609 54.819v122.017"/>
        </g>
        <rect stroke="#C2C7CE" opacity=".3" transform="matrix(-1 0 0 1 802 0)" x="381.5" y="365.757" width="39" height="39" rx="2"/>
        <rect stroke="#C2C7CE" opacity=".3" transform="matrix(-1 0 0 1 302 0)" x="131.5" y="85.757" width="39" height="39" rx="2"/>
        <rect stroke="#FF9502" transform="matrix(-1 0 0 1 48 0)" x="14.5" y="115.757" width="19" height="19" rx="2"/>
        <rect stroke="#C2C7CE" opacity=".3" transform="matrix(-1 0 0 1 622 0)" x="301.5" y="116.757" width="19" height="19" rx="2"/>
        <rect stroke="#C2C7CE" opacity=".3" transform="matrix(-1 0 0 1 902 0)" x="431.5" y="315.757" width="39" height="39" rx="2"/>
        <rect stroke="#C2C7CE" opacity=".3" transform="matrix(-1 0 0 1 1002 0)" x="481.5" y="465.757" width="39" height="39" rx="2"/>
        <rect stroke="#04A8F5" opacity=".3" transform="matrix(-1 0 0 1 838 0)" x="409.5" y="443.757" width="19" height="19" rx="2"/>
        <rect stroke="#04A8F5" opacity=".3" transform="matrix(-1 0 0 1 1224 0)" x="592.5" y="376.757" width="39" height="39" rx="2"/>
        <rect stroke="#04A8F5" opacity=".771" transform="matrix(-1 0 0 1 1280 0)" x="630.5" y="415.5" width="19" height="19" rx="2"/>
        <rect stroke="#C2C7CE" opacity=".3" transform="matrix(-1 0 0 1 1022 0)" x="501.5" y="366.757" width="19" height="19" rx="2"/>
        <rect stroke="#C2C7CE" opacity=".3" transform="matrix(-1 0 0 1 1022 0)" x="501.5" y="216.757" width="19" height="19" rx="2"/>
        <path stroke="url(#g)" d="M532 0v205.257M537 0v205.257"/>
        <path stroke="#F3F4F5" d="M542 0v205.257M547 0v205.257M552 0v205.257M557 0v205.257"/>
        <use fill="#000" filter="url(#h)" xlink:href="#i"/>
        <use fill="#FFF" xlink:href="#i"/>
        <use fill="#000" filter="url(#j)" xlink:href="#k"/>
        <use fill="#FF9502" xlink:href="#k"/>
        <g>
            <use fill="#000" filter="url(#l)" xlink:href="#m"/>
            <use fill="#FF9502" xlink:href="#m"/>
        </g>
    </g>
</svg>
