<svg width="830" height="561" xmlns="http://www.w3.org/2000/svg" xmlns:xlink="http://www.w3.org/1999/xlink">
    <defs>
        <linearGradient x1="0%" y1="50%" x2="100%" y2="50%" id="b">
            <stop stop-color="#E5E9ED" offset="0%"/>
            <stop stop-color="#C2C7CE" offset="100%"/>
        </linearGradient>
        <linearGradient x1="0%" y1="50%" x2="100%" y2="50%" id="d">
            <stop stop-color="#E5E9ED" offset="0%"/>
            <stop stop-color="#C2C7CE" offset="100%"/>
        </linearGradient>
        <linearGradient x1="0%" y1="50%" x2="100%" y2="50%" id="k">
            <stop stop-color="#E5E9ED" offset="0%"/>
            <stop stop-color="#C2C7CE" offset="100%"/>
        </linearGradient>
        <linearGradient x1="0%" y1="50%" x2="100%" y2="50%" id="l">
            <stop stop-color="#E5E9ED" offset="0%"/>
            <stop stop-color="#C2C7CE" offset="100%"/>
        </linearGradient>
        <linearGradient x1="0%" y1="50%" x2="100%" y2="50%" id="m">
            <stop stop-color="#E5E9ED" offset="0%"/>
            <stop stop-color="#C2C7CE" offset="100%"/>
        </linearGradient>
        <linearGradient x1="79.55%" y1="98.114%" x2="46.096%" y2="0%" id="n">
            <stop stop-color="#E5E9ED" stop-opacity="0" offset="0%"/>
            <stop stop-color="#C2C7CE" stop-opacity=".292" offset="100%"/>
        </linearGradient>
        <linearGradient x1="79.44%" y1="98.114%" x2="46.11%" y2="0%" id="o">
            <stop stop-color="#E5E9ED" stop-opacity="0" offset="0%"/>
            <stop stop-color="#C2C7CE" stop-opacity=".292" offset="100%"/>
        </linearGradient>
        <linearGradient x1="35.485%" y1="-29.962%" x2="59.877%" y2="100%" id="p">
            <stop stop-color="#E5E9ED" stop-opacity="0" offset="0%"/>
            <stop stop-color="#C2C7CE" offset="100%"/>
        </linearGradient>
        <linearGradient x1="34.922%" y1="-29.962%" x2="60.26%" y2="100%" id="q">
            <stop stop-color="#E5E9ED" stop-opacity="0" offset="0%"/>
            <stop stop-color="#C2C7CE" offset="100%"/>
        </linearGradient>
        <linearGradient x1="50%" y1="100%" x2="50.003%" y2="0%" id="r">
            <stop stop-color="#FF9502" stop-opacity="0" offset="0%"/>
            <stop stop-color="#FF9502" offset="100%"/>
        </linearGradient>
        <path id="a" d="M.312.054h43.929v41.951H.312z"/>
        <path id="e" d="M.312.054h43.929v41.951H.312z"/>
        <path id="h" d="M262 0h42v41h-42z"/>
        <path id="i" d="M.312.054h43.929v41.951H.312z"/>
        <filter x="-65.5%" y="-50%" width="231%" height="234.1%" filterUnits="objectBoundingBox" id="g">
            <feOffset dy="7" in="SourceAlpha" result="shadowOffsetOuter1"/>
            <feGaussianBlur stdDeviation="8" in="shadowOffsetOuter1" result="shadowBlurOuter1"/>
            <feColorMatrix values="0 0 0 0 0 0 0 0 0 0 0 0 0 0 0 0 0 0 0.226343969 0" in="shadowBlurOuter1"/>
        </filter>
    </defs>
    <g fill="none" fill-rule="evenodd">
        <g opacity=".653">
            <g opacity=".6">
                <g transform="translate(80 499)">
                    <mask id="c" fill="#fff">
                        <use xlink:href="#a"/>
                    </mask>
                    <use fill="#F5F5F5" xlink:href="#a"/>
                    <path fill="url(#b)" opacity=".3" mask="url(#c)" d="m-2.143-2.098 48.825 46.203V-2.098z"/>
                </g>
                <path stroke="#04A8F5" d="M.5 422.5h40v39H.5z"/>
                <path stroke="#04A8F5" opacity=".449" d="M156.5 427.5h41v40h-41z"/>
                <path fill="url(#d)" opacity=".3" d="M135 65h42v41h-42zM30 65h42v41H30z" transform="translate(0 385)"/>
                <g transform="translate(238 396)">
                    <mask id="f" fill="#fff">
                        <use xlink:href="#e"/>
                    </mask>
                    <use fill="#F5F5F5" xlink:href="#e"/>
                    <path fill="url(#b)" opacity=".3" mask="url(#f)" d="m-2.143-2.098 48.825 46.203V-2.098z"/>
                </g>
                <path fill="url(#d)" opacity=".3" d="M295 11h42v41h-42z" transform="translate(0 385)"/>
                <g transform="translate(0 385)">
                    <use fill="#000" filter="url(#g)" xlink:href="#h"/>
                    <use fill="#FFF" xlink:href="#h"/>
                </g>
            </g>
            <g transform="translate(425 326)">
                <mask id="j" fill="#fff">
                    <use xlink:href="#i"/>
                </mask>
                <use fill="#F5F5F5" xlink:href="#i"/>
                <path fill="url(#b)" opacity=".3" mask="url(#j)" d="m-2.143-2.098 48.825 46.203V-2.098z"/>
            </g>
            <path stroke="#04A8F5" d="M390.5 339.5h44v42h-44z"/>
            <path stroke="#F3F3F5" d="M320.5 392.5h20v20h-20zM372.5 466.5h20v20h-20zM351.5 360.5h20v20h-20zM526.5 476.5h44v40h-44z"/>
            <path stroke="#FF9502" d="M552.5 490.5h40v42h-40z"/>
            <path fill="url(#k)" opacity=".3" d="M207 275h41v43h-41z" transform="translate(320 243)"/>
            <path fill="url(#k)" opacity=".2" d="M261 223h41v43h-41z" transform="translate(320 243)"/>
            <path fill="url(#l)" opacity=".2" d="M310 223h45v43h-45z" transform="translate(320 243)"/>
            <path stroke="#F3F3F5" d="M532.5 329.5h20v19h-20z"/>
            <path fill="#F6F7F9" d="M629 243h98v92h-98z"/>
            <path stroke="#F6F7F9" d="M578.5 295.5h41v39h-41z"/>
            <path fill="url(#m)" opacity=".2" d="M367 125h42v40h-42z" transform="translate(320 243)"/>
            <path stroke="#F3F3F5" d="M687.5 421.5h41v39h-41z"/>
            <path fill="#F6F7F9" d="M631 421h42v40h-42z"/>
            <path fill="#04A8F5" opacity=".3" d="M553 360h21v21h-21z"/>
            <path fill="#FF9502" d="M415 496h21v21h-21z"/>
            <path stroke="#F3F3F5" d="M376.5 340.5h4v4h-4z"/>
            <path fill="url(#d)" opacity=".3" d="M53 149h42v41H53z" transform="translate(320 243)"/>
        </g>
        <path stroke="url(#n)" d="M7 0h97.56l58.5 58.5V203" transform="translate(666 280)"/>
        <path stroke="url(#n)" d="M3 4h97.56l58.5 58.5V207" transform="translate(666 280)"/>
        <path stroke="url(#o)" d="M0 9h96.897L155 67.212V211" transform="translate(666 280)"/>
        <g>
            <path stroke="url(#p)" opacity=".4" transform="matrix(-1 0 0 1 677 1)" d="M32 4v22.643L84 53.77V121"/>
            <path stroke="url(#q)" opacity=".4" transform="matrix(-1 0 0 1 686 1)" d="M36 7v22.643L89 56.77V124"/>
            <path stroke="url(#p)" opacity=".4" transform="matrix(-1 0 0 1 695 1)" d="M41 9v22.643L93 58.77V126"/>
            <path stroke="url(#r)" stroke-width="2" stroke-linecap="square" d="M4.5.5v128M.5 21.5v128" transform="translate(561 1)"/>
        </g>
    </g>
</svg>
