<svg width="375" height="486" xmlns="http://www.w3.org/2000/svg" xmlns:xlink="http://www.w3.org/1999/xlink">
    <defs>
        <linearGradient x1="0%" y1="50%" x2="100%" y2="50%" id="b">
            <stop stop-color="#E5E9ED" offset="0%"/>
            <stop stop-color="#C2C7CE" offset="100%"/>
        </linearGradient>
        <linearGradient x1="50%" y1="0%" x2="50%" y2="100%" id="f">
            <stop stop-color="#04A8F5" stop-opacity="0" offset="0%"/>
            <stop stop-color="#04A8F5" offset="15.166%"/>
            <stop stop-color="#04A8F5" stop-opacity="0" offset="100%"/>
        </linearGradient>
        <linearGradient x1="50%" y1="0%" x2="50%" y2="100%" id="g">
            <stop stop-color="#04A8F5" stop-opacity="0" offset="0%"/>
            <stop stop-color="#04A8F5" offset="15.166%"/>
            <stop stop-color="#04A8F5" stop-opacity="0" offset="100%"/>
        </linearGradient>
        <filter x="-46.1%" y="-33.8%" width="192.1%" height="194.6%" filterUnits="objectBoundingBox" id="h">
            <feOffset dy="4" in="SourceAlpha" result="shadowOffsetOuter1"/>
            <feGaussianBlur stdDeviation="4" in="shadowOffsetOuter1" result="shadowBlurOuter1"/>
            <feColorMatrix values="0 0 0 0 0 0 0 0 0 0 0 0 0 0 0 0 0 0 0.148574 0" in="shadowBlurOuter1"/>
        </filter>
        <filter x="-69.1%" y="-50.7%" width="238.2%" height="241.9%" filterUnits="objectBoundingBox" id="j">
            <feOffset dy="6" in="SourceAlpha" result="shadowOffsetOuter1"/>
            <feGaussianBlur stdDeviation="6" in="shadowOffsetOuter1" result="shadowBlurOuter1"/>
            <feColorMatrix values="0 0 0 0 0 0 0 0 0 0 0 0 0 0 0 0 0 0 0.148574 0" in="shadowBlurOuter1"/>
        </filter>
        <filter x="-125%" y="-93.8%" width="350%" height="362.5%" filterUnits="objectBoundingBox" id="l">
            <feOffset dy="6" in="SourceAlpha" result="shadowOffsetOuter1"/>
            <feGaussianBlur stdDeviation="6" in="shadowOffsetOuter1" result="shadowBlurOuter1"/>
            <feColorMatrix values="0 0 0 0 0 0 0 0 0 0 0 0 0 0 0 0 0 0 0.148574 0" in="shadowBlurOuter1"/>
        </filter>
        <path id="a" d="M0 0h32v30.4H0z"/>
        <path id="d" d="M0 0h32v30.4H0z"/>
        <path id="i" d="M328 148h30.4v29.6H328z"/>
        <rect id="k" x="150.4" y="90.4" width="30.4" height="29.6" rx="1.6"/>
        <rect id="m" x="476.8" y="235.2" width="16.8" height="16" rx="1.6"/>
    </defs>
    <g transform="translate(-145)" fill="none" fill-rule="evenodd" opacity=".7">
        <g transform="translate(424 172.206)">
            <mask id="c" fill="#fff">
                <use xlink:href="#a"/>
            </mask>
            <use fill="#F5F5F5" xlink:href="#a"/>
            <path fill="url(#b)" opacity=".3" mask="url(#c)" d="M-1.6-1.6 33.6 32V-1.6z"/>
        </g>
        <g transform="translate(304 93.806)">
            <mask id="e" fill="#fff">
                <use xlink:href="#d"/>
            </mask>
            <use fill="#F5F5F5" xlink:href="#d"/>
            <path fill="url(#b)" opacity=".3" mask="url(#e)" d="M-1.6-1.6 33.6 32V-1.6z"/>
        </g>
        <rect fill="#C2C7CE" opacity=".304" x="385.6" y="132.206" width="32" height="32" rx="1.6"/>
        <rect fill="#C2C7CE" opacity=".304" x="425.6" y="252.206" width="16" height="16" rx="1.6"/>
        <rect fill="#C2C7CE" opacity=".304" x="344.8" y="211.406" width="32" height="32" rx="1.6"/>
        <rect fill="#C2C7CE" opacity=".304" x="384.8" y="252.206" width="32" height="32" rx="1.6"/>
        <rect fill="#C2C7CE" opacity=".304" x="465.6" y="292.206" width="32" height="32" rx="1.6"/>
        <rect fill="#C2C7CE" opacity=".304" x="344.8" y="332.206" width="32" height="32" rx="1.6"/>
        <rect fill="#C2C7CE" opacity=".1" x="304" y="333.006" width="32" height="32" rx="1.6"/>
        <rect fill="#C2C7CE" opacity=".1" x="385.6" y="316.206" width="15.2" height="15.2" rx="1.6"/>
        <rect fill="#C2C7CE" opacity=".1" x="344.8" y="372.206" width="32" height="32" rx="1.6"/>
        <rect fill="#C2C7CE" opacity=".304" x="306.4" y="132.206" width="32" height="32" rx="1.6"/>
        <rect fill="#C2C7CE" opacity=".1" x="344.8" y="92.206" width="32" height="32" rx="1.6"/>
        <rect fill="#C2C7CE" opacity=".1" x="265.6" y="92.206" width="32" height="32" rx="1.6"/>
        <rect fill="#C2C7CE" opacity=".1" x="265.6" y="47.406" width="32" height="32" rx="1.6"/>
        <rect fill="#C2C7CE" opacity=".2" x="464.8" y="132.206" width="32" height="32" rx="1.6"/>
        <rect fill="#C2C7CE" opacity=".2" x="385.6" y="211.406" width="32" height="32" rx="1.6"/>
        <rect fill="#C2C7CE" opacity=".2" x="306.4" y="211.406" width="32" height="32" rx="1.6"/>
        <rect fill="#C2C7CE" opacity=".2" x="224.8" y="252.206" width="32" height="32" rx="1.6"/>
        <rect fill="#C2C7CE" opacity=".2" x="226.4" y="133.006" width="32" height="32" rx="1.6"/>
        <rect fill="#C2C7CE" opacity=".2" x="384.8" y="412.206" width="32" height="32" rx="1.6"/>
        <rect fill="#C2C7CE" opacity=".2" x="422.4" y="412" width="4.8" height="4.8" rx=".8"/>
        <rect fill="#C2C7CE" opacity=".2" x="422.4" y="396.8" width="4.8" height="4.8" rx=".8"/>
        <rect fill="#04A8F5" x="422.4" y="404" width="4.8" height="4.8" rx=".8"/>
        <rect fill="#04A8F5" opacity=".2" x="264.8" y="172.206" width="32" height="32" rx="1.6"/>
        <rect fill="#04A8F5" opacity=".5" x="385.6" y="69.006" width="16" height="16" rx="1.6"/>
        <rect fill="#C2C7CE" opacity=".2" x="344.8" y="170.606" width="32" height="32" rx="1.6"/>
        <rect fill="#C2C7CE" opacity=".2" x="343.2" y="133.006" width="32" height="32" rx="1.6"/>
        <rect fill="#C2C7CE" opacity=".2" x="424" y="211.406" width="32" height="32" rx="1.6"/>
        <g transform="translate(425.924 270.606)" stroke="url(#f)" stroke-width=".8">
            <path d="M0 3.587v55.511l14.464 15.045H34.21l43.448 43.448v97.614"/>
            <path d="M2.076 1.6v56.767l13.569 13.79h20.64l43.45 43.447v97.614"/>
            <path d="M4.476 0v57.746L16.644 70.15h21.804l43.686 43.854v97.614"/>
        </g>
        <rect stroke="#C2C7CE" stroke-width=".8" opacity=".3" transform="matrix(-1 0 0 1 641.6 0)" x="305.2" y="292.606" width="31.2" height="31.2" rx="1.6"/>
        <rect stroke="#C2C7CE" stroke-width=".8" opacity=".3" transform="matrix(-1 0 0 1 497.6 0)" x="241.2" y="93.406" width="15.2" height="15.2" rx="1.6"/>
        <rect stroke="#C2C7CE" stroke-width=".8" opacity=".3" transform="matrix(-1 0 0 1 721.6 0)" x="345.2" y="252.606" width="31.2" height="31.2" rx="1.6"/>
        <rect stroke="#C2C7CE" stroke-width=".8" opacity=".3" transform="matrix(-1 0 0 1 801.6 0)" x="385.2" y="372.606" width="31.2" height="31.2" rx="1.6"/>
        <rect stroke="#04A8F5" stroke-width=".8" opacity=".3" transform="matrix(-1 0 0 1 670.4 0)" x="327.6" y="355.006" width="15.2" height="15.2" rx="1.6"/>
        <rect stroke="#04A8F5" stroke-width=".8" opacity=".3" transform="matrix(-1 0 0 1 979.2 0)" x="474" y="301.406" width="31.2" height="31.2" rx="1.6"/>
        <rect stroke="#04A8F5" stroke-width=".8" opacity=".771" transform="matrix(-1 0 0 1 1024 0)" x="504.4" y="332.4" width="15.2" height="15.2" rx="1.6"/>
        <rect stroke="#C2C7CE" stroke-width=".8" opacity=".3" transform="matrix(-1 0 0 1 817.6 0)" x="401.2" y="293.406" width="15.2" height="15.2" rx="1.6"/>
        <rect stroke="#C2C7CE" stroke-width=".8" opacity=".3" transform="matrix(-1 0 0 1 817.6 0)" x="401.2" y="173.406" width="15.2" height="15.2" rx="1.6"/>
        <path stroke="url(#g)" stroke-width=".8" d="M425.6 0v164.206M429.6 0v164.206"/>
        <path stroke="#F3F4F5" stroke-width=".8" d="M433.6 0v164.206M437.6 0v164.206M441.6 0v164.206M445.6 0v164.206"/>
        <use fill="#000" filter="url(#h)" xlink:href="#i"/>
        <use fill="#FFF" xlink:href="#i"/>
        <use fill="#000" filter="url(#j)" xlink:href="#k"/>
        <use fill="#FF9502" xlink:href="#k"/>
        <g>
            <use fill="#000" filter="url(#l)" xlink:href="#m"/>
            <use fill="#FF9502" xlink:href="#m"/>
        </g>
    </g>
</svg>
