<?xml version="1.0" encoding="UTF-8"?>
<svg width="1260px" height="497px" viewBox="0 0 1260 497" version="1.1" xmlns="http://www.w3.org/2000/svg" xmlns:xlink="http://www.w3.org/1999/xlink">
    <!-- Generator: sketchtool 61.2 (101010) - https://sketch.com -->
    <title>05ED9FF5-3DDD-4422-90DA-032F67642451</title>
    <desc>Created with sketchtool.</desc>
    <defs>
        <rect id="path-1" x="0.325623831" y="0.0553089969" width="45.8809524" height="42.9500581"></rect>
        <linearGradient x1="0%" y1="50%" x2="100%" y2="50%" id="linearGradient-3">
            <stop stop-color="#E5E9ED" offset="0%"></stop>
            <stop stop-color="#C2C7CE" offset="100%"></stop>
        </linearGradient>
        <rect id="path-4" x="0" y="0" width="39" height="37"></rect>
        <linearGradient x1="0%" y1="50%" x2="100%" y2="50%" id="linearGradient-6">
            <stop stop-color="#E5E9ED" offset="0%"></stop>
            <stop stop-color="#C2C7CE" offset="100%"></stop>
        </linearGradient>
        <linearGradient x1="0%" y1="50%" x2="100%" y2="50%" id="linearGradient-7">
            <stop stop-color="#E5E9ED" offset="0%"></stop>
            <stop stop-color="#C2C7CE" offset="100%"></stop>
        </linearGradient>
        <rect id="path-8" x="258" y="373" width="38" height="37"></rect>
        <filter x="-46.1%" y="-33.8%" width="192.1%" height="194.6%" filterUnits="objectBoundingBox" id="filter-9">
            <feOffset dx="0" dy="5" in="SourceAlpha" result="shadowOffsetOuter1"></feOffset>
            <feGaussianBlur stdDeviation="5" in="shadowOffsetOuter1" result="shadowBlurOuter1"></feGaussianBlur>
            <feColorMatrix values="0 0 0 0 0   0 0 0 0 0   0 0 0 0 0  0 0 0 0.148574 0" type="matrix" in="shadowBlurOuter1"></feColorMatrix>
        </filter>
        <rect id="path-10" x="310" y="271" width="38" height="37"></rect>
        <filter x="-46.1%" y="-33.8%" width="192.1%" height="194.6%" filterUnits="objectBoundingBox" id="filter-11">
            <feOffset dx="0" dy="5" in="SourceAlpha" result="shadowOffsetOuter1"></feOffset>
            <feGaussianBlur stdDeviation="5" in="shadowOffsetOuter1" result="shadowBlurOuter1"></feGaussianBlur>
            <feColorMatrix values="0 0 0 0 0   0 0 0 0 0   0 0 0 0 0  0 0 0 0.148574082 0" type="matrix" in="shadowBlurOuter1"></feColorMatrix>
        </filter>
        <linearGradient x1="0%" y1="50%" x2="100%" y2="50%" id="linearGradient-12">
            <stop stop-color="#E5E9ED" offset="0%"></stop>
            <stop stop-color="#C2C7CE" offset="100%"></stop>
        </linearGradient>
        <linearGradient x1="0%" y1="50%" x2="100%" y2="50%" id="linearGradient-13">
            <stop stop-color="#E5E9ED" offset="0%"></stop>
            <stop stop-color="#C2C7CE" offset="100%"></stop>
        </linearGradient>
        <rect id="path-14" x="0" y="0" width="38" height="36"></rect>
        <linearGradient x1="0%" y1="50%" x2="100%" y2="50%" id="linearGradient-16">
            <stop stop-color="#E5E9ED" offset="0%"></stop>
            <stop stop-color="#C2C7CE" offset="100%"></stop>
        </linearGradient>
        <rect id="path-17" x="201" y="361" width="37" height="36" rx="2"></rect>
        <filter x="-47.3%" y="-34.7%" width="194.6%" height="197.2%" filterUnits="objectBoundingBox" id="filter-18">
            <feOffset dx="0" dy="5" in="SourceAlpha" result="shadowOffsetOuter1"></feOffset>
            <feGaussianBlur stdDeviation="5" in="shadowOffsetOuter1" result="shadowBlurOuter1"></feGaussianBlur>
            <feColorMatrix values="0 0 0 0 0   0 0 0 0 0   0 0 0 0 0  0 0 0 0.148574 0" type="matrix" in="shadowBlurOuter1"></feColorMatrix>
        </filter>
        <rect id="path-19" x="9" y="165" width="37" height="36" rx="2"></rect>
        <filter x="-47.3%" y="-34.7%" width="194.6%" height="197.2%" filterUnits="objectBoundingBox" id="filter-20">
            <feOffset dx="0" dy="5" in="SourceAlpha" result="shadowOffsetOuter1"></feOffset>
            <feGaussianBlur stdDeviation="5" in="shadowOffsetOuter1" result="shadowBlurOuter1"></feGaussianBlur>
            <feColorMatrix values="0 0 0 0 0   0 0 0 0 0   0 0 0 0 0  0 0 0 0.148574 0" type="matrix" in="shadowBlurOuter1"></feColorMatrix>
        </filter>
        <rect id="path-21" x="213" y="44" width="37" height="36"></rect>
        <filter x="-47.3%" y="-34.7%" width="194.6%" height="197.2%" filterUnits="objectBoundingBox" id="filter-22">
            <feOffset dx="0" dy="5" in="SourceAlpha" result="shadowOffsetOuter1"></feOffset>
            <feGaussianBlur stdDeviation="5" in="shadowOffsetOuter1" result="shadowBlurOuter1"></feGaussianBlur>
            <feColorMatrix values="0 0 0 0 0   0 0 0 0 0   0 0 0 0 0  0 0 0 0.077333 0" type="matrix" in="shadowBlurOuter1"></feColorMatrix>
        </filter>
    </defs>
    <g id="🎨-Design" stroke="none" stroke-width="1" fill="none" fill-rule="evenodd" opacity="0.699999988">
        <g id="Home" transform="translate(-75.000000, -4877.000000)">
            <g id="Contact-Us" transform="translate(76.000000, 4877.000000)">
                <g id="Pattern">
                    <g transform="translate(841.000000, 0.000000)">
                        <g id="Path-3-Copy" transform="translate(189.000000, 328.000000)">
                            <mask id="mask-2" fill="white">
                                <use xlink:href="#path-1"></use>
                            </mask>
                            <use id="Mask" fill="#F5F5F5" xlink:href="#path-1"></use>
                            <polygon id="Path-3" fill="url(#linearGradient-3)" opacity="0.300000012" mask="url(#mask-2)" points="-2.23809524 -2.1475029 48.7566136 45.1553472 48.7566136 -2.1475029"></polygon>
                        </g>
                        <g id="Path-3-Copy-2" transform="translate(316.500000, 150.500000) scale(-1, 1) translate(-316.500000, -150.500000) translate(297.000000, 132.000000)">
                            <mask id="mask-5" fill="white">
                                <use xlink:href="#path-4"></use>
                            </mask>
                            <use id="Mask" fill="#F5F5F5" xlink:href="#path-4"></use>
                            <polygon id="Path-3" fill="url(#linearGradient-6)" opacity="0.300000012" mask="url(#mask-5)" points="-2.05263158 -2.05555556 41.0526316 39.0555556 41.0526316 -2.05555556"></polygon>
                        </g>
                        <rect fill="url(#linearGradient-7)" opacity="0.300000012" x="198" y="232" width="38" height="37"></rect>
                        <rect fill="#C2C7CE" opacity="0.304045771" x="246" y="232" width="38" height="37"></rect>
                        <rect fill="#C2C7CE" opacity="0.304045771" x="0" y="431" width="38" height="37"></rect>
                        <rect fill="url(#linearGradient-7)" opacity="0.300000012" x="49" y="431" width="38" height="37"></rect>
                        <rect fill="url(#linearGradient-7)" opacity="0.300000012" transform="translate(217.000000, 200.500000) scale(-1, 1) translate(-217.000000, -200.500000) " x="198" y="182" width="38" height="37"></rect>
                        <rect fill="#04A8F5" transform="translate(227.500000, 131.000000) scale(-1, 1) translate(-227.500000, -131.000000) " x="217" y="121" width="21" height="20"></rect>
                        <rect fill="url(#linearGradient-7)" opacity="0.300000012" transform="translate(268.000000, 100.500000) scale(-1, 1) translate(-268.000000, -100.500000) " x="249" y="82" width="38" height="37"></rect>
                        <rect id="Pattern-Copy" fill="#FF9502" opacity="0.300000012" transform="translate(317.000000, 100.500000) scale(-1, 1) translate(-317.000000, -100.500000) " x="298" y="82" width="38" height="37"></rect>
                        <rect fill="#C2C7CE" opacity="0.100000001" x="198" y="381" width="38" height="37"></rect>
                        <rect fill="#C2C7CE" opacity="0.100000001" x="159" y="0" width="38" height="37"></rect>
                        <rect fill="#C2C7CE" opacity="0.100000001" x="111" y="0" width="38" height="37"></rect>
                        <rect fill="#C2C7CE" opacity="0.100000001" x="149" y="381" width="38" height="37"></rect>
                        <rect fill="#C2C7CE" opacity="0.100000001" x="347" y="331" width="38" height="37"></rect>
                        <rect fill="#C2C7CE" opacity="0.100000001" x="397" y="380" width="21" height="21"></rect>
                        <rect fill="#C2C7CE" opacity="0.100000001" x="346" y="299" width="21" height="21"></rect>
                        <rect fill="#C2C7CE" opacity="0.100000001" x="247" y="350" width="21" height="21"></rect>
                        <rect fill="#C2C7CE" opacity="0.100000001" x="246" y="200" width="21" height="21"></rect>
                        <rect fill="#C2C7CE" opacity="0.100000001" x="49" y="381" width="38" height="37"></rect>
                        <rect stroke="#04A8F5" x="296.5" y="280.5" width="39" height="38"></rect>
                        <rect stroke="#FF9502" x="217.5" y="150.5" width="18" height="18"></rect>
                        <rect stroke="#04A8F5" x="336.5" y="260.5" width="20" height="19"></rect>
                        <rect stroke="#C2C7CE" opacity="0.300000012" transform="translate(297.000000, 409.500000) scale(-1, 1) translate(-297.000000, -409.500000) " x="277.5" y="390.5" width="39" height="38" rx="2"></rect>
                        <rect stroke="#C2C7CE" opacity="0.300000012" transform="translate(268.000000, 399.500000) scale(-1, 1) translate(-268.000000, -399.500000) " x="248.5" y="380.5" width="39" height="38" rx="2"></rect>
                        <rect stroke="#C2C7CE" opacity="0.300000012" transform="translate(117.000000, 399.500000) scale(-1, 1) translate(-117.000000, -399.500000) " x="97.5" y="380.5" width="39" height="38" rx="2"></rect>
                        <rect stroke="#C2C7CE" opacity="0.100000001" transform="translate(165.000000, 450.500000) scale(-1, 1) translate(-165.000000, -450.500000) " x="145.5" y="431.5" width="39" height="38" rx="2"></rect>
                        <rect stroke="#C2C7CE" opacity="0.100000001" transform="translate(107.500000, 440.000000) scale(-1, 1) translate(-107.500000, -440.000000) " x="97.5" y="430.5" width="20" height="19" rx="2"></rect>
                        <rect stroke="#C2C7CE" opacity="0.300000012" transform="translate(28.500000, 410.000000) scale(-1, 1) translate(-28.500000, -410.000000) " x="18.5" y="400.5" width="20" height="19" rx="2"></rect>
                        <g>
                            <use fill="black" fill-opacity="1" filter="url(#filter-9)" xlink:href="#path-8"></use>
                            <use fill="#FFFFFF" fill-rule="evenodd" xlink:href="#path-8"></use>
                        </g>
                        <g>
                            <use fill="black" fill-opacity="1" filter="url(#filter-11)" xlink:href="#path-10"></use>
                            <use fill="#FFFFFF" fill-rule="evenodd" xlink:href="#path-10"></use>
                        </g>
                    </g>
                    <g transform="translate(0.000000, 27.000000)">
                        <rect fill="url(#linearGradient-12)" opacity="0.200000003" x="172" y="434" width="37" height="36"></rect>
                        <rect fill="url(#linearGradient-12)" opacity="0.100000001" x="125" y="195" width="37" height="36"></rect>
                        <rect fill="url(#linearGradient-13)" opacity="0.100000001" x="96" y="242" width="20" height="19"></rect>
                        <rect fill="url(#linearGradient-12)" opacity="0.100000001" x="28" y="99" width="37" height="36"></rect>
                        <rect fill="url(#linearGradient-12)" opacity="0.100000001" x="172" y="99" width="37" height="36"></rect>
                        <rect fill="url(#linearGradient-12)" opacity="0.100000001" x="172" y="51" width="37" height="36"></rect>
                        <rect fill="url(#linearGradient-12)" opacity="0.100000001" x="268" y="0" width="37" height="36"></rect>
                        <rect fill="url(#linearGradient-12)" opacity="0.100000001" x="220" y="99" width="37" height="36"></rect>
                        <rect fill="url(#linearGradient-12)" opacity="0.100000001" x="170" y="195" width="37" height="36"></rect>
                        <rect fill="url(#linearGradient-12)" opacity="0.100000001" x="221" y="244" width="37" height="36"></rect>
                        <rect fill="url(#linearGradient-12)" opacity="0.200000003" x="172" y="387" width="37" height="36"></rect>
                        <rect fill="#C2C7CE" opacity="0.304045771" x="220" y="387" width="37" height="36" rx="2"></rect>
                        <rect fill="#C2C7CE" opacity="0.304045771" x="76" y="195" width="37" height="36" rx="2"></rect>
                        <rect fill="#C2C7CE" opacity="0.304045771" x="316" y="0" width="37" height="36" rx="2"></rect>
                        <rect fill="#C2C7CE" opacity="0.304045771" x="28" y="147" width="37" height="36" rx="2"></rect>
                        <rect fill="#04A8F5" opacity="0.300000012" x="123" y="242" width="39" height="38" rx="2"></rect>
                        <g transform="translate(47.000000, 309.000000) scale(-1, -1) translate(-47.000000, -309.000000) translate(28.000000, 291.000000)">
                            <mask id="mask-15" fill="white">
                                <use xlink:href="#path-14"></use>
                            </mask>
                            <use id="Mask" fill="#F5F5F5" xlink:href="#path-14"></use>
                            <polygon id="Path-3" fill="url(#linearGradient-16)" opacity="0.300000012" mask="url(#mask-15)" points="-2 -2 40 38 40 -2"></polygon>
                        </g>
                        <rect stroke="#C2C7CE" opacity="0.100000001" transform="translate(191.500000, 261.000000) scale(-1, 1) translate(-191.500000, -261.000000) " x="172.5" y="242.5" width="38" height="37" rx="2"></rect>
                        <rect stroke="#C2C7CE" opacity="0.100000001" transform="translate(142.500000, 19.000000) scale(-1, 1) translate(-142.500000, -19.000000) " x="123.5" y="0.5" width="38" height="37" rx="2"></rect>
                        <rect stroke="#C2C7CE" opacity="0.100000001" transform="translate(143.500000, 117.000000) scale(-1, 1) translate(-143.500000, -117.000000) " x="124.5" y="98.5" width="38" height="37" rx="2"></rect>
                        <rect stroke="#C2C7CE" opacity="0.100000001" transform="translate(9.000000, 156.000000) scale(-1, 1) translate(-9.000000, -156.000000) " x="0.5" y="147.5" width="17" height="17" rx="2"></rect>
                        <rect stroke="#C2C7CE" opacity="0.100000001" transform="translate(135.000000, 174.000000) scale(-1, 1) translate(-135.000000, -174.000000) " x="126.5" y="165.5" width="17" height="17" rx="2"></rect>
                        <g>
                            <use fill="black" fill-opacity="1" filter="url(#filter-18)" xlink:href="#path-17"></use>
                            <use fill="#FFFFFF" fill-rule="evenodd" xlink:href="#path-17"></use>
                        </g>
                        <g>
                            <use fill="black" fill-opacity="1" filter="url(#filter-20)" xlink:href="#path-19"></use>
                            <use fill="#FFFFFF" fill-rule="evenodd" xlink:href="#path-19"></use>
                        </g>
                        <g>
                            <use fill="black" fill-opacity="1" filter="url(#filter-22)" xlink:href="#path-21"></use>
                            <use fill="#FFFFFF" fill-rule="evenodd" xlink:href="#path-21"></use>
                        </g>
                        <rect stroke="#FF9502" transform="translate(210.500000, 80.000000) scale(-1, 1) translate(-210.500000, -80.000000) " x="191.5" y="61.5" width="38" height="37" rx="2"></rect>
                        <rect id="Pattern-Copy-2" stroke="#FF9502" transform="translate(201.000000, 392.000000) scale(-1, 1) translate(-201.000000, -392.000000) " x="191.5" y="382.5" width="19" height="19" rx="2"></rect>
                    </g>
                </g>
            </g>
        </g>
    </g>
</svg>